<?xml version="1.0" encoding="utf-8"?>
<!-- Generator: Adobe Illustrator 28.0.0, SVG Export Plug-In . SVG Version: 6.00 Build 0)  -->
<svg version="1.1" xmlns="http://www.w3.org/2000/svg" xmlns:xlink="http://www.w3.org/1999/xlink" x="0px" y="0px"
	 viewBox="0 0 295.87 82.12" style="enable-background:new 0 0 295.87 82.12;" xml:space="preserve">
<style type="text/css">
	.st0{fill:#0A3254;}
	.st1{fill:#FFFFFF;}
	.st2{fill:#A32035;}
</style>
<g id="one_color_vertical">
</g>
<g id="full_color_vertical">
</g>
<g id="full_color_extreme">
	<g>
		<g>
			<path class="st0" d="M115.19,32.4c-0.5,0.01-0.79,0.35-0.86,1c-0.09,0.56-0.48,1.41-0.88,1.9c-0.65,0.81-2.03,0.87-3.77,0.87
				h-0.18c-2.71,0-3.48-0.24-3.9-0.66c-0.63-0.62-0.62-5.58-0.61-7.97v-6.53c0-5.71,0-6.73,0.07-7.89c0.08-1.29,0.33-1.54,0.9-1.64
				c0.38-0.07,0.85-0.1,1.1-0.1c0.44,0,0.9-0.32,0.9-0.86c0-0.23-0.1-0.77-1.07-0.77h-0.12c-0.79,0-2.38,0.06-3.14,0.09l-0.52,0.02
				c-0.14,0.01-0.23,0.01-0.25,0.01l-0.51-0.02c-0.7-0.03-2.33-0.1-3.68-0.1c-0.97,0-1.11,0.48-1.11,0.77c0,0.53,0.47,0.85,0.9,0.85
				c0.34,0,0.89,0.04,1.1,0.09c0.83,0.19,1.01,0.46,1.09,1.64c0.07,1.16,0.07,2.19,0.07,7.89v6.46c0,3.57,0,6.39-0.17,7.88
				c-0.06,0.41-0.23,1.68-0.58,1.74c-0.37,0.08-0.72,0.13-0.96,0.13c-0.83,0.01-0.89,0.56-0.89,0.72c0,0.4,0.23,0.6,0.37,0.68
				c0.15,0.08,0.32,0.12,0.54,0.12c0.06,0,0.11,0,0.21-0.01l0.07,0c0.68,0,1.74-0.04,2.68-0.08l0.13-0.01
				c0.37-0.01,0.64-0.03,0.74-0.03c0.82,0,1.71,0.03,2.74,0.07l0.07,0c1.68,0.06,3.77,0.14,6.91,0.14l0.26,0
				c1.67,0,2.28-0.21,2.62-1.44c0.31-1.11,0.53-3.33,0.53-3.79c0-0.26-0.01-0.45-0.07-0.6C115.82,32.64,115.53,32.4,115.19,32.4z
				 M130.58,13.3c-9.37,0-12.86,7.91-12.86,12.89c0,6.24,3.96,12.96,12.67,12.96c7.54,0,13.01-5.66,13.01-13.46
				C143.4,18.28,138.25,13.3,130.58,13.3z M131.24,36.74c-5.5,0-9.34-4.7-9.34-11.42c0-6,3.24-9.73,8.47-9.73
				c4.26,0,8.83,3.44,8.83,10.98C139.2,36.25,132.57,36.74,131.24,36.74z M171.13,13.74c-0.78,0-1.46,0.04-2.01,0.06l-0.1,0
				c-0.24,0.02-0.43,0.02-0.54,0.02c-0.1,0-0.33-0.01-0.64-0.02c-0.65-0.03-1.63-0.07-2.6-0.07h0c-0.33,0.01-1.22,0.02-1.22,0.8
				c0,0.09,0.01,0.28,0.2,0.5c0.16,0.18,0.39,0.27,0.66,0.27c0.15,0,0.87,0.02,1.37,0.13c0.45,0.12,0.71,0.3,0.75,2.51l0.3,14.35
				c-0.45-0.5-1-1.11-1.6-1.78l-0.24-0.27c-1.33-1.47-2.98-3.3-4.52-4.97c-5.11-5.53-9.45-10.28-9.91-10.79
				c-0.08-0.08-0.17-0.18-0.27-0.3c-0.34-0.39-0.73-0.84-1.24-0.89c-0.43,0-0.77,0.32-0.86,0.8c-0.07,0.28-0.09,0.67-0.09,1.38
				l-0.03,18.01c0,1.75-0.05,3.39-0.51,3.51c-0.33,0.12-0.79,0.16-1.09,0.16c-0.49,0.01-0.85,0.35-0.85,0.81
				c0,0.28,0.14,0.75,1.11,0.75c0.91,0,1.82-0.04,2.42-0.07l0.29-0.01c0.13-0.01,0.23-0.01,0.28-0.01c0.07,0,0.21,0.01,0.42,0.02
				c0.5,0.03,1.53,0.08,2.94,0.08c0.91,0,1.11-0.41,1.11-0.75c0-0.45-0.37-0.8-0.86-0.81c-0.08,0-0.79,0-1.38-0.17
				c-0.34-0.1-0.71-0.43-0.77-3.18l-0.36-13.37c1.24,1.4,4.07,4.57,7,7.77c3.32,3.61,7.8,8.23,8.13,8.53l0.1,0.1
				c1.77,1.78,2.05,2.06,2.62,2.09h0.01c0.37,0,0.76-0.27,0.81-0.86c0.05-0.33,0.07-0.87,0.07-1.98l0.06-18.41
				c0.01-2.06,0.18-2.28,0.64-2.34c0.24-0.03,0.4-0.04,0.55-0.04h0.1c0.89,0,0.97-0.59,0.97-0.79
				C172.26,13.74,171.44,13.74,171.13,13.74z M212.32,21.9l-1.01-0.8c-3.38-2.8-4.2-3.92-4.21-5.69c0-2.18,1.55-3.64,3.85-3.65
				c3.05,0.01,3.95,1.36,4.09,1.63c0.17,0.3,0.37,1.22,0.4,1.59l0.01,0.1c0.03,0.62,0.31,0.94,0.85,0.94
				c0.75-0.08,0.75-0.86,0.75-1.28v-0.17c0-1.95,0.09-3.11,0.13-3.6c0-0.06,0.01-0.11,0.03-0.18l0.02-0.13
				c0.01-0.3-0.08-0.5-0.28-0.66c-0.22-0.16-0.45-0.18-0.65-0.18c-0.25,0-0.51-0.04-1.13-0.17c-1.06-0.26-2.18-0.39-3.52-0.39
				c-2.4,0-4.44,0.69-5.89,1.98c-1.46,1.3-2.23,3.11-2.23,5.23c0,2.6,0.84,5.03,4.94,8.43l1.63,1.36c3.1,2.59,3.95,3.91,3.95,6.13
				c0,2.12-1.58,4.27-4.58,4.27c-1.24,0-4.18-0.33-4.77-3.26c-0.1-0.45-0.1-0.92-0.1-1.23c0-0.16,0-0.39-0.12-0.61
				c-0.07-0.12-0.23-0.41-0.7-0.41c-0.75,0.03-0.8,0.79-0.83,1.15l-0.03,0.43c-0.05,0.69-0.15,1.97-0.15,3.49
				c-0.01,1.13,0.22,1.58,0.97,1.95c1.5,0.74,2.97,1.05,4.93,1.05c2.28,0,4.3-0.57,5.84-1.66c2.46-1.77,3.34-4.56,3.34-6.58
				C217.86,28.03,216.96,25.58,212.32,21.9z M238.19,17.54l0.03,0.41c0.01,0.86,0.44,1.04,0.8,1.04c0.46-0.01,0.69-0.35,0.69-1.02
				c0-0.08,0-0.25,0.01-0.48l0.03-0.89c0.02-0.74,0.05-1.59,0.05-2.17c0.03-0.75-0.47-0.88-0.72-0.9c-0.11,0-0.26,0.03-0.49,0.08
				c-0.43,0.08-1.22,0.23-2.57,0.23h-11.66c-0.35,0-1.53-0.06-2.41-0.16c-0.44-0.03-0.68-0.14-0.91-0.24
				c-0.12-0.06-0.26-0.13-0.55-0.13c-0.4,0.06-0.52,0.37-0.58,0.51l-0.04,0.09c-0.05,0.11-0.09,0.22-0.11,0.31l-0.07,0.23
				c-0.61,2.64-0.68,3.17-0.68,3.34c0,0.72,0.37,0.89,0.68,0.89c0.36,0,0.64-0.28,0.84-0.82c0.08-0.18,0.16-0.38,0.45-0.82
				c0.3-0.46,0.76-0.62,2.74-0.66l3.98-0.05v12.67c0,2.93,0,5.46-0.15,6.74c-0.04,0.31-0.17,1.26-0.43,1.31
				c-0.2,0.04-1.01,0.11-1.28,0.11c-0.62,0-0.85,0.36-0.86,0.7c0,0.38,0.24,0.78,0.91,0.78h0l0.19-0.01c0.68,0,2.36-0.05,3.05-0.08
				c0.26-0.01,0.43-0.02,0.47-0.02c0.03,0,0.15,0,0.34,0.01l0.3,0.01c0.75,0.03,2.02,0.07,3.18,0.07c0.95,0,1.11-0.49,1.11-0.78
				c0-0.32-0.23-0.7-0.86-0.7c-0.24,0-0.89-0.06-1.31-0.12c-0.38-0.05-0.57-0.2-0.69-1.29c-0.15-1.31-0.15-3.95-0.15-6.75l0-12.67
				l3.29,0.05C238.04,16.45,238.15,17.28,238.19,17.54z M188.7,24.69c-0.91,0-1.89-0.17-2.9-0.49c-0.96-0.31-1.95-0.49-2.95-0.54
				l0-7.47c1.12,0.01,3.38,0.04,3.76,0.09c1.62,0.18,1.74,0.45,1.81,0.62c0.1,0.26,0.14,0.68,0.14,0.9c0,1.01,0.58,1.09,0.75,1.09
				c0.58,0,0.69-0.62,0.74-0.86c0.04-0.25,0.08-0.79,0.11-1.36l0.05-0.75c0.06-0.5,0.13-0.83,0.18-1.07
				c0.04-0.16,0.07-0.32,0.07-0.47c0-0.78-0.41-0.89-0.65-0.89c-0.23,0-0.41,0.09-0.52,0.15l-0.07,0.03
				c-0.21,0.06-0.7,0.11-1.2,0.14c-0.71,0.03-7.03,0.03-7.09,0.03l-0.43-0.01c-0.58-0.02-2.03-0.08-3.09-0.08
				c-1.03,0-1.11,0.59-1.11,0.77c0,0.33,0.22,0.72,0.86,0.72c0.26,0,0.72,0.03,0.93,0.08c0.61,0.13,0.8,0.45,0.85,1.41
				c0.07,0.98,0.07,1.86,0.07,6.74v0.69c-1.37,0.41-2.3,0.97-2.43,1.06l-0.2,0.31l0.14,0.47l0.26,0.3l0.26-0.01
				c0.84-0.06,1.44-0.09,1.97-0.09l0,2.8c0,3.05,0,5.46-0.16,6.74c-0.06,0.42-0.18,1.29-0.42,1.34c-0.31,0.07-0.62,0.11-0.8,0.11
				c-0.56,0-0.86,0.42-0.86,0.81c0,0.44,0.44,0.72,1.11,0.72c0.6,0,1.63-0.04,2.18-0.06l0.86-0.04c0.26,0,0.63,0.02,1.2,0.04
				l0.14,0.01c1.2,0.05,3.22,0.14,6.35,0.14c1.22,0,1.78,0,2.12-1.29c0.17-0.71,0.42-2.86,0.42-3.19c0-1-0.6-1.08-0.78-1.08
				c-0.58,0-0.69,0.61-0.76,0.98c-0.19,1.1-0.45,1.55-1.04,1.8c-0.69,0.29-1.98,0.29-2.74,0.29c-2.83,0-2.92-0.28-2.99-1.99
				c-0.01-0.24-0.02-1.13,0-3.96c0-0.58,0.01-1.09,0.01-1.38v-2.14c0.35,0.11,0.75,0.24,1.24,0.39c1.02,0.34,1.98,0.51,2.87,0.51
				c3.29,0,4.39-2.33,4.51-2.6l0.58-1.47l-1.42,0.69C190.63,24.38,189.94,24.69,188.7,24.69z M260.84,37.12
				c-0.39,0-0.75-0.05-1.08-0.17c-0.48-0.14-1.24-0.62-2.27-3.19c-0.35-0.89-0.81-2.06-1.32-3.38c1.4-0.66,1.98-1.76,2.14-2.1
				l0.58-1.45l-1.41,0.67c-0.01,0-0.7,0.31-1.94,0.31c-0.12,0-0.24,0-0.36-0.01c-0.82-2.14-1.69-4.43-2.47-6.49l-1.45-3.82
				c-0.53-1.39-0.9-2.37-1.01-2.66c-0.34-0.89-0.58-1.53-1.25-1.53c-0.67,0-0.89,0.61-1.26,1.63l-7.06,19.51
				c-0.56,1.58-1.06,2.46-2.07,2.6c-0.23,0.03-0.63,0.06-0.82,0.06c-0.55,0-0.93,0.31-0.93,0.76c0,0.3,0.14,0.54,0.4,0.67
				c0.19,0.1,0.4,0.11,0.55,0.11h0l0.26-0.01c0.93,0,1.96-0.04,2.74-0.07l0.1,0c0.32-0.01,0.57-0.02,0.67-0.02
				c0.13,0,0.42,0.01,0.76,0.03c0.47,0.02,1.4,0.06,1.89,0.06c0.89,0,1.08-0.42,1.08-0.77c0-0.23-0.09-0.76-0.88-0.76h-0.54
				c-0.21,0-0.61-0.13-0.61-0.34c0-0.55,0.24-1.37,0.41-1.92l0.44-1.31c0.43-1.29,1.07-3.2,1.4-4.21c1.83-0.05,2.85,0.2,5.42,1.05
				c0.41,0.13,0.83,0.25,1.25,0.33c0.51,1.31,1.24,3.24,2.29,6.04l0.09,0.23c0.01,0.02,0.02,0.05,0.02,0.07
				c-0.08,0.01-0.19,0.02-0.33,0.03l-0.15,0.02c-0.45,0.12-0.68,0.37-0.68,0.74c0,0.71,0.78,0.73,1.3,0.74l0.91,0.02
				c1.53,0.04,3.27,0.06,4.9,0.06c0.31,0,1.24,0,1.24-0.79C261.77,37.52,261.6,37.12,260.84,37.12z M246.23,27.16l2.28-6.97
				c1.14,3.1,1.93,5.35,2.35,6.71C249.29,26.66,247.78,26.75,246.23,27.16z M295.09,46.83c-0.14,0.01-0.29,0.01-0.45,0.01
				c-4.02,0-7.91-3.63-11.91-11.1c-1.55-2.91-3.26-5.2-5.08-6.83c-0.28-0.21-1.08-0.83-1.6-1.26c0.67-0.37,1.84-1.25,2.31-1.86
				c0.92-1.21,1.39-2.8,1.39-4.72c0-0.37-0.02-0.75-0.05-1.12c-0.22-2.5-1.61-4.14-2.39-4.72c-1.8-1.3-3.98-1.41-6.04-1.41
				c-0.49,0-1.34,0.02-2.1,0.05l-0.55,0.02c-0.5,0.02-0.9,0.03-1.01,0.03l-0.39-0.01c-1.29-0.05-2.37-0.08-3.19-0.08l-0.15,0
				c-0.84,0-0.9,0.61-0.9,0.8c0.01,0.44,0.36,0.73,0.86,0.73c0.27,0,0.74,0.04,0.92,0.08c0.67,0.15,0.8,0.34,0.86,1.28
				c0.06,0.99,0.06,1.87,0.06,6.75v5.53c0,3.05,0,5.47-0.15,6.74c-0.11,0.82-0.26,1.24-0.45,1.27c-0.22,0.05-0.66,0.11-0.89,0.11
				c-0.59,0-0.86,0.38-0.86,0.74c0,0.24,0.11,0.79,1.11,0.79c0.59,0,1.69-0.03,2.94-0.09l0.09-0.01c0.03,0,0.15,0,0.42,0.02
				c0.74,0.03,2.12,0.08,3.4,0.08c0.95,0,1.1-0.49,1.11-0.79c0-0.35-0.27-0.74-0.86-0.74c-0.24,0-0.9-0.06-1.31-0.12
				c-0.38-0.06-0.57-0.2-0.69-1.25c-0.15-1.28-0.15-3.82-0.15-6.75l-0.02-12.9c0.34-0.06,1.01-0.12,1.73-0.12
				c2.98,0.01,4.76,2.13,4.77,5.67c0,1.19-0.2,2.21-0.6,3.04c0,0-0.14,0.31-0.56,0.73c-0.49,0.48-1.27,1.15-2.45,1.52
				c-0.11,0.01-0.29,0.07-0.65,0.23c-0.16,0.06-0.53,0.2-0.53,0.62c0,0.16,0.06,0.28,0.11,0.37c0.17,0.25,0.43,0.31,0.6,0.35
				c0.06,0.01,0.13,0.03,0.21,0.06c0.15,0.06,0.34,0.13,0.52,0.23c0.53,0.32,1.32,1.16,1.49,1.39c1,1.23,1.95,2.87,3.06,4.79
				c2,3.44,4.48,7.73,8.37,11.23c1.71,1.54,4.26,2.26,8.04,2.26h0c0.69-0.01,1.48-0.11,1.83-0.25c0.36-0.14,0.53-0.38,0.53-0.73
				C295.87,47.11,295.56,46.84,295.09,46.83z M120.11,64.5c-0.69,0-0.77,0.61-0.81,0.92l-0.02,0.14c-0.1,0.62-0.57,2.11-1.18,2.76
				c-1.4,1.45-3.82,1.65-6.01,1.65c-7.82-0.01-12.49-6.53-12.49-12.82c0-3.04,0.37-6.51,3.08-9.14c1.1-1.07,3.11-2.5,7.92-2.51
				c3.18,0,5.79,1.01,6.86,1.95c0.81,0.69,1.38,2.04,1.38,3.28c0,0.3,0.01,0.55,0.07,0.74c0.11,0.41,0.39,0.64,0.79,0.64
				c0,0,0,0,0,0c0.74-0.03,0.78-0.73,0.8-1.16l0.01-0.19c0.01-0.24,0.02-0.72,0.03-1.3l0.01-0.52c0.01-0.66,0.03-1.41,0.06-1.97
				c0.04-0.74,0.09-1.19,0.14-1.56c0.03-0.23,0.04-0.39,0.04-0.49c0.02-0.26-0.06-0.51-0.23-0.71c-0.16-0.17-0.33-0.32-0.71-0.34
				c-1.11-0.07-2.25-0.28-3.63-0.54c-2.19-0.4-4.49-0.45-5.38-0.45c-5.01,0-8.77,1.34-11.5,4.11c-3.12,3.16-4.24,7.47-4.24,10.45
				c0,4.74,1.55,8.55,4.59,11.32c3.09,2.81,7.03,4.12,12.39,4.12c2.21,0,5.15-0.24,6.78-0.89c0.85-0.37,0.98-0.66,1.21-1.45
				c0.38-1.33,0.82-4.58,0.82-4.92C120.93,64.73,120.49,64.52,120.11,64.5z M135.54,46.93c-9.36,0-12.85,7.91-12.85,12.89
				c0,6.24,3.96,12.96,12.67,12.96c7.54,0,13.01-5.66,13.01-13.46C148.37,51.91,143.21,46.93,135.54,46.93z M136.2,70.37
				c-5.5,0-9.34-4.7-9.34-11.42c0-6,3.24-9.73,8.47-9.73c4.26,0,8.84,3.44,8.84,10.98C144.17,69.88,137.53,70.37,136.2,70.37z
				 M184.65,66.75c-0.46,0-0.72,0.32-0.78,0.93c-0.08,0.53-0.37,1.21-0.68,1.59c-0.53,0.65-1.78,0.71-3.24,0.71h-0.17
				c-2.29,0-2.95-0.21-3.28-0.55c-0.51-0.49-0.5-5.04-0.5-6.76v-5.59c0-4.89,0-5.77,0.06-6.74c0.08-1.15,0.3-1.24,0.7-1.32
				c0.33-0.06,0.73-0.09,0.93-0.09c0.79,0,0.85-0.54,0.86-0.71c0-0.77-0.81-0.77-1.11-0.77c-0.68,0-2.06,0.05-2.8,0.07l-0.55,0.02
				c-0.02,0-0.09,0-0.18-0.01l-0.2-0.01c-0.67-0.02-2.06-0.08-3.13-0.08c-0.3,0-1.11,0-1.11,0.78c0,0.16,0.08,0.7,0.88,0.7
				c0.27,0,0.72,0.04,0.9,0.08c0.66,0.15,0.8,0.35,0.86,1.31c0.06,0.98,0.06,1.86,0.06,6.75v5.53c0,3.05,0,5.47-0.15,6.74
				c-0.11,0.82-0.25,1.25-0.42,1.29c-0.23,0.05-0.58,0.11-0.8,0.11c-0.59,0-0.86,0.38-0.86,0.73c0,0.19,0.07,0.79,0.94,0.79l0.17,0
				c0.48,0,1.23-0.02,2.31-0.07l0.24-0.01c0.25-0.01,0.43-0.02,0.5-0.02c0.38,0,0.77,0.03,1.18,0.06c0.35,0.03,0.73,0.05,1.14,0.07
				l0.15,0.01c1.33,0.05,3.15,0.12,5.84,0.12h0.01c0.09,0,0.18,0,0.26,0c1.5,0,1.94-0.25,2.22-1.3c0.27-0.98,0.49-2.93,0.49-3.31
				v-0.11c0-0.16,0-0.31-0.04-0.43C185.22,66.95,184.98,66.75,184.65,66.75z M166.18,66.75c-0.46,0-0.72,0.32-0.78,0.93
				c-0.08,0.52-0.38,1.22-0.68,1.59c-0.53,0.66-1.78,0.71-3.24,0.71h-0.17c-2.28,0-2.94-0.21-3.28-0.55
				c-0.51-0.49-0.5-5.04-0.5-6.76v-5.59c0-4.89,0-5.77,0.06-6.74c0.08-1.15,0.3-1.24,0.7-1.32c0.33-0.05,0.74-0.09,0.93-0.09
				c0.78,0,0.85-0.55,0.86-0.72c-0.01-0.77-0.81-0.77-1.11-0.77c-0.61,0-1.78,0.04-2.55,0.07l-0.81,0.03
				c-0.04,0-0.17-0.01-0.46-0.02c-0.6-0.02-2-0.08-3.05-0.08c-0.3,0-1.11,0-1.11,0.79c0.01,0.21,0.12,0.69,0.88,0.69
				c0.27,0,0.72,0.03,0.9,0.08c0.66,0.15,0.79,0.35,0.86,1.32c0.06,0.98,0.06,1.86,0.06,6.75v5.53c0,3.05,0,5.47-0.15,6.74
				c-0.11,0.82-0.25,1.26-0.42,1.29c-0.32,0.07-0.62,0.11-0.8,0.11c-0.59,0-0.86,0.36-0.86,0.73c0,0.19,0.07,0.79,0.94,0.79l0.17,0
				c0.47,0,1.22-0.02,2.31-0.07c0.36-0.02,0.64-0.03,0.74-0.03c0.34,0,0.71,0.03,1.09,0.06l0.09,0.01c0.35,0.03,0.73,0.05,1.13,0.07
				c1.35,0.05,3.19,0.12,5.98,0.12h0.01c0.09,0,0.18,0,0.26,0c1.5,0,1.94-0.25,2.22-1.3c0.28-1.03,0.49-2.94,0.49-3.31v-0.12
				c0-0.14,0-0.29-0.04-0.42C166.74,66.94,166.51,66.75,166.18,66.75z M229.33,59.39c-0.64,0-1.71,0.04-2.43,0.07l-0.4,0.02
				c-0.11,0-0.19,0.01-0.21,0.01l-0.46-0.02c-0.71-0.03-2.02-0.08-3.06-0.08c-1.01,0-1.16,0.51-1.16,0.81c0,0.43,0.45,0.7,0.86,0.7
				c0.31,0,0.76,0.04,0.89,0.07c0.85,0.24,0.94,0.27,0.95,2.75v5.34c0,0.3-0.08,0.44-0.32,0.58c-0.65,0.38-2.12,0.58-3.24,0.58
				c-2.98,0-5.57-1.07-7.72-3.19c-1.08-1.06-3.11-4.15-3.11-8.27c0-3.27,1.07-6.08,2.85-7.5c2.13-1.71,4.28-1.94,6.29-1.94
				c3.57,0,6.17,1.14,6.89,2.26c0.45,0.72,0.55,1.59,0.56,1.84l0.01,0.12c0.02,0.22,0.06,0.81,0.75,0.86c0.35,0,0.59-0.2,0.69-0.57
				c0.06-0.2,0.05-0.36,0.05-0.54v-0.15c0-2.28,0.11-3.37,0.17-3.89c0.03-0.25,0.05-0.43,0.04-0.53c0.02-0.22-0.06-0.43-0.22-0.61
				c-0.12-0.15-0.28-0.3-0.65-0.31c-0.8-0.03-1.84-0.16-2.41-0.3c-0.11-0.02-2.59-0.55-4.88-0.55c-2.47,0-5.67,0.24-8.6,2.07
				c-3.43,2.18-5.47,6.23-5.47,10.85c0,4.42,2.1,7.83,3.9,9.41c2.64,2.33,6.22,3.51,10.63,3.51c1.98,0,4.83-0.39,6.89-1.49
				c0.69-0.4,0.72-0.85,0.71-2.23v-3.52c0-1.3,0-2.25,0.06-3.23c0.08-1.21,0.34-1.27,0.65-1.32c0.36-0.06,0.51-0.09,0.67-0.09
				c0.41,0,0.85-0.25,0.85-0.7C230.38,59.66,230.03,59.39,229.33,59.39z M200.24,58.34c-0.91,0-1.88-0.17-2.9-0.49
				c-0.96-0.31-1.95-0.49-2.95-0.54l0-7.48c1.09,0.01,3.38,0.04,3.77,0.09c1.62,0.18,1.74,0.45,1.81,0.62
				c0.1,0.26,0.14,0.69,0.14,0.9c0,1.01,0.57,1.09,0.75,1.09c0.57,0,0.69-0.6,0.74-0.86c0.05-0.27,0.08-0.87,0.12-1.51l0.01-0.14
				c0.01-0.21,0.02-0.38,0.03-0.47c0.05-0.47,0.12-0.78,0.17-1.04c0.05-0.2,0.08-0.35,0.08-0.5c0-0.78-0.41-0.89-0.65-0.89
				c-0.23,0-0.41,0.09-0.53,0.15c-0.03,0.01-0.05,0.02-0.05,0.03c-0.23,0.06-0.72,0.11-1.21,0.14c-0.71,0.03-7.03,0.03-7.09,0.03
				l-0.4-0.01c-0.31-0.01-1.92-0.08-3.12-0.08c-1.03,0-1.11,0.59-1.11,0.77c0,0.33,0.22,0.72,0.86,0.72c0.29,0,0.74,0.03,0.93,0.08
				c0.61,0.13,0.79,0.43,0.86,1.41c0.06,0.98,0.06,1.86,0.06,6.74v0.69c-1.42,0.42-2.32,0.99-2.42,1.05l-0.22,0.32l0.15,0.47
				l0.26,0.3l0.26-0.02c0.83-0.06,1.44-0.09,1.97-0.09l0,2.8c0,3.05,0,5.46-0.16,6.74c-0.06,0.42-0.18,1.29-0.43,1.34
				c-0.31,0.07-0.61,0.11-0.8,0.11c-0.56,0-0.86,0.42-0.86,0.81c0,0.44,0.44,0.72,1.11,0.72c0.57,0,1.5-0.04,2.19-0.06l0.85-0.03
				c0.26,0,0.63,0.02,1.25,0.05c1.2,0.05,3.22,0.14,6.43,0.14c1.22,0,1.78,0,2.12-1.29c0.16-0.71,0.42-2.86,0.42-3.18
				c0-1-0.59-1.08-0.78-1.08c-0.58,0-0.69,0.61-0.76,0.98c-0.18,1.09-0.44,1.55-1.03,1.8c-0.69,0.29-1.98,0.29-2.75,0.29
				c-2.83,0-2.92-0.28-2.99-2c-0.02-0.42-0.01-2.2-0.01-3.7v-0.25c0-0.58,0.01-1.08,0.01-1.38V60.5c0.35,0.11,0.75,0.23,1.24,0.39
				c1.02,0.34,1.98,0.51,2.87,0.51c3.28,0,4.39-2.33,4.5-2.6l0.6-1.47l-1.42,0.69C202.17,58.03,201.46,58.34,200.24,58.34z
				 M240.31,64.03c0-0.58,0.01-1.08,0.01-1.38V60.5c0.35,0.11,0.75,0.23,1.24,0.39c1.02,0.34,1.99,0.51,2.88,0.51
				c3.37,0,4.46-2.49,4.5-2.6l0.59-1.46l-1.42,0.68c-0.18,0.07-0.83,0.31-1.93,0.31c-0.92,0-1.89-0.17-2.9-0.49
				c-0.97-0.31-1.96-0.49-2.95-0.54l0-7.47c1.22,0.01,3.4,0.04,3.77,0.09c1.62,0.18,1.73,0.45,1.81,0.62
				c0.1,0.25,0.14,0.68,0.14,0.9c0,1.02,0.58,1.09,0.75,1.09c0.57,0,0.69-0.6,0.74-0.86c0.05-0.28,0.09-0.93,0.12-1.5l0.01-0.14
				c0.01-0.21,0.02-0.39,0.03-0.46c0.05-0.48,0.12-0.79,0.18-1.06c0.04-0.18,0.08-0.33,0.08-0.48c0-0.78-0.41-0.89-0.65-0.89
				c-0.23,0-0.4,0.09-0.49,0.13l-0.1,0.04c-0.21,0.06-0.68,0.11-1.2,0.13c-0.71,0.03-7.03,0.03-7.09,0.03l-0.63-0.02
				c-0.62-0.02-1.92-0.07-2.9-0.07c-1.03,0-1.11,0.59-1.11,0.77c0,0.33,0.22,0.72,0.86,0.72c0.29,0,0.74,0.03,0.93,0.08
				c0.61,0.13,0.8,0.44,0.85,1.41c0.06,0.98,0.06,1.86,0.06,6.75v0.69c-1.28,0.38-2.1,0.86-2.34,1l-0.12,0.08l-0.19,0.29l0.15,0.47
				l0.25,0.31l0.26-0.02c0.87-0.06,1.46-0.09,1.97-0.09l0,2.8c0,3.05,0,5.46-0.15,6.74c-0.06,0.42-0.18,1.29-0.42,1.34
				c-0.31,0.07-0.62,0.11-0.8,0.11c-0.56,0-0.86,0.42-0.86,0.81c0,0.44,0.44,0.72,1.11,0.72c0.52,0,1.35-0.03,2.07-0.06l0.97-0.04
				c0.25,0,0.6,0.02,1.13,0.04l0.08,0c1.12,0.05,3.19,0.14,6.48,0.14c1.22,0,1.77,0,2.12-1.29c0.16-0.69,0.42-2.87,0.42-3.18
				c0-1-0.59-1.08-0.78-1.08c-0.58,0-0.69,0.61-0.76,0.98c-0.19,1.1-0.45,1.55-1.04,1.8c-0.69,0.29-1.98,0.29-2.74,0.29
				c-2.83,0-2.92-0.28-2.99-1.99c-0.02-0.33-0.02-1.62-0.01-3.7L240.31,64.03z"/>
		</g>
	</g>
	<g>
		<g>
			<circle id="White_Circle_00000127752447123396148090000015757265929891447427_" class="st1" cx="41.06" cy="41.06" r="41.06"/>
			<g id="Blue_Background_00000166663101713257676860000002132251935121662622_">
				<g>
					<path class="st0" d="M41.2,2.41c-6.44,0-12.5,1.58-17.84,4.37c0.32,0.03,0.61,0.06,0.83,0.06c2.76,0.01,5.53,0.02,8.29,0.02h0
						c0.38,0,0.92-0.05,1.53-0.11c0.61-0.05,1.29-0.11,1.94-0.11c1.27,0,2.44,0.21,2.81,1.02c0.41,0.89,0.06,2.6,0.06,3.53
						c0,1.31-0.01,2.63-0.01,3.94c0,2.3-0.74,5.1,2.06,5.45c1.6,0.2,1.03,0.2,2.22,1.11c0.67,0.51,1.47,0.53,2.26,0.64
						c0.16,0.02,0.34,0.03,0.53,0.03c0.27,0,0.56-0.02,0.85-0.03c0.29-0.02,0.59-0.03,0.87-0.03c0.37,0,0.71,0.03,0.96,0.12
						c0.71,0.27,0.81,1.13,1.54,1.33c0.02,0,0.04,0.01,0.06,0.01c0.11,0,0.24-0.07,0.37-0.14c0.13-0.07,0.27-0.14,0.39-0.14
						c0.02,0,0.03,0,0.05,0c0.38,0.07,0.64,0.25,0.99,0.33c0.34,0.07,0.63,0.1,0.9,0.1c0.67,0,1.22-0.16,2.02-0.16h0
						c0.41,0,1.59,0.14,1.93,0.26c1.01,0.35,1.1,0.62,1.56,0.62c0.23,0,0.55-0.06,1.11-0.22c1.48-0.39,3.16-0.64,4.65-0.64
						c0.03,0,0.06,0,0.09,0c1.84,0.01,3.07,1.6,4.85,2.13c0.89,0.26,2.01,0,2.58,0.89c0.49,0.77,0.11,2.4,0.11,3.3
						c0,1.64-0.01,3.29-0.01,4.93c0,1.6,0.22,1.66,0.89,2.98c0.5,0.98,0.5,3.26,1.42,4.01c0.07,0.06,0.12,0.1,0.15,0.12
						c0.03,0.02,0.05,0.04,0.05,0.04s-0.02-0.01-0.05-0.04c-0.02-0.02-0.04-0.03-0.06-0.05c-0.03-0.02-0.06-0.05-0.08-0.07
						c1.12,0.92,0.35,2.92-0.01,3.97c-0.43,1.26-0.32,2.13-0.43,3.39c-0.1,1.08-0.83,1.74-1.06,2.62c-0.19,0.75,0.37,0.7-0.34,1.32
						c-0.09,0.08-0.21,0.09-0.35,0.09c-0.08,0-0.16-0.01-0.24-0.01c-0.08-0.01-0.16-0.01-0.23-0.01c-0.07,0-0.13,0.01-0.18,0.02
						c-2.48,0.74-3.96,2.44-5.89,4.01c-2.08,1.69-4.48,2.8-6.65,4.35c-2.25,1.61-4.13,3.38-5.07,6.08
						c-0.96,2.72,0.41,5.26,0.65,7.98c0.06,0.67,0.06,1.21-0.13,1.64c14.97-5.33,25.68-19.62,25.68-36.41
						C79.85,19.71,62.55,2.41,41.2,2.41z"/>
				</g>
			</g>
			<g id="Red_Background_00000050639640927069156950000004700712245323353987_">
				<path class="st2" d="M3.44,36.33c1.06,0,2.15,0.14,2.7,0.14c2.49,0.01,4.97,0.01,7.46,0.02c0.75,0,2.87,0.27,4.58,0.27
					c1.08,0,1.99-0.11,2.27-0.46c0.44-0.55,0.07-3.54,0.07-4.19c0.01-1.27,0.02-2.55,0.03-3.82c0.05-5.84,0.05-11.69,0.07-17.53
					c0-0.58-0.16-1.48-0.13-2.28C10.97,14.52,4.29,24.62,2.86,36.35C3.05,36.33,3.24,36.33,3.44,36.33z"/>
				<path class="st2" d="M50.12,77.53c-1.28-0.43-2.14-0.13-3.43-0.78c-1.07-0.53-2.22-1.04-3.26-1.64
					c-1.48-0.86-1.78-2.53-2.52-4.02c-0.66-1.31-0.49-3.11-1.17-4.26c-0.24-0.41-0.93-0.69-1.27-1.09
					c-0.37-0.44-0.51-0.96-0.82-1.42c-0.59-0.84-1.42-1.46-1.92-2.35c-1.01-1.77-1.38-4.07-2.54-5.73
					c-1.09-1.55-3.14-3.36-4.99-3.63c-0.65-0.09-1.44-0.22-2.2-0.22c-1.04,0-2.04,0.23-2.61,1.06c-0.94,1.38-0.79,4.39-3.24,4.39
					c0,0-0.01,0-0.01,0c-1.41-0.01-4.32-1.96-5.43-2.79c-1.82-1.37-2.81-2.73-3.29-4.94c-0.42-1.93-1.17-3.23-2.76-4.36
					c-1.71-1.22-3.26-2.85-4.86-4.23c-0.51-0.45-0.8-0.9-1.2-1.38c-0.01,0.31-0.03,0.61-0.03,0.92c0,21.35,17.3,38.65,38.65,38.65
					c3.55,0,6.98-0.49,10.24-1.38C51.1,78.09,50.75,77.75,50.12,77.53z"/>
			</g>
		</g>
		<g>
			<polygon class="st0" points="47.02,39.67 49.88,30.88 53.3,38.32 50.07,25.3 45.52,37.48 32.34,37.48 43.95,45.03 38.5,39.67 			
				"/>
			<path class="st0" d="M68.8,35.93c0,0-10.26-1.28-20.2,6.4c0,0-8.74,7.25-9.96,19.4c0,0,4.99-13.92,14.07-19.33
				C61.78,36.98,64.32,37.1,68.8,35.93"/>
			<polygon class="st0" points="43.6,57.55 49.95,49.17 57.33,53.93 54.01,46.09 62.32,40.22 56.91,46.78 60.55,57.86 50.1,52.06 
							"/>
		</g>
	</g>
</g>
<g id="full_color">
</g>
</svg>
